<?xml version="1.0" standalone="no"?>
<!DOCTYPE svg PUBLIC "-//W3C//DTD SVG 1.1//EN" "http://www.w3.org/Graphics/SVG/1.1/DTD/svg11.dtd" >
<svg xmlns="http://www.w3.org/2000/svg">
<metadata></metadata>
<defs>
<font id="hattori_hanzolight_italic" horiz-adv-x="333" >
<font-face units-per-em="2048" ascent="1536" descent="-512" />
<missing-glyph horiz-adv-x="512" />
<glyph horiz-adv-x="2048" />
<glyph horiz-adv-x="2048" />
<glyph unicode="&#xd;" horiz-adv-x="2048" />
<glyph unicode=" "  horiz-adv-x="512" />
<glyph unicode="&#x09;" horiz-adv-x="512" />
<glyph unicode="&#xa0;" horiz-adv-x="512" />
<glyph unicode="!" horiz-adv-x="413" d="M109 74q5 41 38 70.5t76 29.5t70.5 -29.5t23.5 -70.5q-5 -41 -38 -71t-76 -30t-70.5 30t-23.5 71zM184 291q31 450 54 667l49 476h141l-49 -476q-10 -96 -33 -263t-41 -285l-18 -119h-103z" />
<glyph unicode="&#x22;" horiz-adv-x="569" d="M224.5 873.5q-2.5 44.5 2.5 207t25 353.5h123l-66 -627h-80q-2 22 -4.5 66.5zM428 807l66 627h122q-20 -191 -47 -348t-44 -218l-17 -61h-80z" />
<glyph unicode="#" horiz-adv-x="1382" d="M63 410l13 125h305l133 364h-264l12 125h295l150 410h129l-150 -410h379l149 410h129l-149 -410h274l-12 -125h-305l-133 -364h264l-12 -125h-297l-148 -410h-129l148 410h-379l-148 -410h-129l148 410h-273zM510 535h379l133 364h-379z" />
<glyph unicode="$" horiz-adv-x="976" d="M72 111l55 77q6 -4 16.5 -9.5t44 -21t68.5 -27t87.5 -21t102.5 -9.5h5l59 580q-161 62 -244 156.5t-67 236.5q17 164 126 263.5t267 119.5l14 133h99l-15 -131q88 -4 167.5 -27t114.5 -44l36 -21l-52 -88q-14 6 -39 15.5t-96.5 25.5t-136.5 16h-6l-57 -538 q198 -70 273 -170.5t58 -266.5q-17 -156 -130.5 -262t-286.5 -121l-17 -163h-98l16 163q-74 4 -138.5 19t-104 34t-68.5 37.5t-41 30.5zM340 1083q-10 -95 36.5 -152t149.5 -100l54 496q-219 -39 -240 -244zM549 109q130 22 192 94t72 172q9 89 -37 153.5t-170 116.5z" />
<glyph unicode="%" horiz-adv-x="1724" d="M168 1030q11 102 51 184.5t97 134.5t125 79.5t139 27.5q70 0 131 -27.5t106.5 -79.5t67 -134.5t10.5 -184.5t-50 -184.5t-96.5 -133.5t-125 -78.5t-138.5 -27.5q-70 0 -131.5 27.5t-107 78.5t-67.5 133.5t-11 184.5zM244 0l1233 1434h151l-1231 -1434h-153zM301 1030 q-32 -311 195 -311q114 0 181.5 73.5t84.5 237.5q18 162 -35 236.5t-160 74.5q-104 0 -176 -75t-90 -236zM977 397q10 102 49.5 184.5t97 134.5t125 79.5t137.5 27.5q71 0 132.5 -27.5t107 -79.5t67.5 -134.5t11 -184.5t-51 -184.5t-97.5 -133.5t-125.5 -78.5t-138 -27.5 t-131 27.5t-107 78.5t-67 133.5t-10 184.5zM1110 397q-18 -164 33 -237.5t162 -73.5q114 0 181 73.5t85 237.5q18 162 -35.5 237t-161.5 75q-102 0 -174 -76t-90 -236z" />
<glyph unicode="&#x26;" horiz-adv-x="1275" d="M98 354q5 56 26 106t49.5 89.5t77 83.5t93 77.5t113.5 80.5q-142 213 -129 354q11 104 68 176t136 103.5t173 31.5q136 0 220.5 -71.5t71.5 -196.5q-11 -119 -96.5 -207.5t-277.5 -208.5q51 -71 174 -213q37 -42 192 -207q95 153 113 330h104q-23 -249 -137 -414 q50 -50 99 -96.5t72 -67.5l24 -22l-64 -80q-76 42 -209 168q-97 -99 -221.5 -148t-253.5 -49q-222 0 -329.5 101.5t-88.5 279.5zM231 356q-13 -131 71.5 -199.5t234.5 -68.5q226 0 374 162q-100 105 -223 248q-120 141 -172 211q-67 -47 -110.5 -82.5t-84.5 -79.5t-63 -91 t-27 -100zM461 1155q-13 -121 108 -305q15 11 58.5 41t58 40.5t49 36.5t47 39t35.5 37.5t32 43t18 43.5t12 51q9 76 -45 117.5t-142 41.5q-107 0 -164.5 -49t-66.5 -137z" />
<glyph unicode="'" horiz-adv-x="329" d="M193 807l59 627h125l-72 -627h-112z" />
<glyph unicode="(" horiz-adv-x="532" d="M130 331q-7 102 9 216q15 143 50 270.5t79 217t93.5 164t96 120.5t84 77.5t60.5 44.5l23 13l43 -61q-7 -6 -19 -16.5t-47 -49.5t-68 -84t-75.5 -119.5t-75.5 -155t-61.5 -192t-40.5 -229.5q-16 -174 -2 -311t48.5 -237.5t70.5 -166.5t64 -98l27 -33l-55 -61q-5 3 -12.5 8 t-33 25.5t-47.5 46t-54.5 68t-55 92.5t-49 120t-36 149.5t-16.5 181.5z" />
<glyph unicode=")" horiz-adv-x="532" d="M-20 -299q7 6 19 16.5t47 49.5t67.5 84t75 119.5t75.5 155t62 192t41 229.5q15 174 0.5 311t-49.5 237.5t-71 166.5t-63 98l-28 33l55 61q15 -8 39.5 -26t84.5 -91.5t102 -166.5t67 -259.5t4 -363.5q-12 -113 -36 -216t-55.5 -182t-68 -149t-74.5 -120.5t-75 -92 t-69 -68.5t-57 -45.5t-39 -25.5l-14 -8z" />
<glyph unicode="*" horiz-adv-x="772" d="M176 1094l10 112q118 0 240 -24l-104 221l102 57q42 -89 78 -221l149 221l92 -57q-60 -92 -161 -197h254l-11 -112q-119 0 -237 24l104 -221l-104 -55q-48 101 -76 219l-152 -219l-90 55q66 101 162 197h-256z" />
<glyph unicode="+" horiz-adv-x="1024" d="M98 553l13 125h405l43 407h131l-43 -407h406l-13 -125h-405l-43 -408h-131l43 408h-406z" />
<glyph unicode="," d="M53 -178q8 7 21 20.5t40 53t38 77.5q-39 3 -63 32t-21 69q5 41 38 70.5t76 29.5t70.5 -29.5t23.5 -70.5q0 -54 -28 -121q-18 -44 -55.5 -88t-66.5 -66l-28 -22z" />
<glyph unicode="-" horiz-adv-x="696" d="M90 471l12 125h615l-12 -125h-615z" />
<glyph unicode="." horiz-adv-x="331" d="M68 74q5 41 38 70.5t76 29.5q44 0 71.5 -29.5t22.5 -70.5q-5 -42 -37.5 -71.5t-76.5 -29.5q-43 0 -70.5 30t-23.5 71z" />
<glyph unicode="/" horiz-adv-x="804" d="M0 0l825 1434h129l-825 -1434h-129z" />
<glyph unicode="0" horiz-adv-x="1157" d="M156 715q41 381 182.5 561t390.5 180q250 0 355.5 -180.5t64.5 -560.5q-39 -379 -183 -560.5t-393 -181.5q-248 0 -352 181t-65 561zM305 715q-23 -223 3.5 -361t95 -197t184.5 -59t196.5 59t135 197t77.5 361q24 224 -1.5 362t-94 197t-184.5 59q-175 0 -275.5 -143 t-136.5 -475z" />
<glyph unicode="1" horiz-adv-x="550" d="M166 1202l10 98l338 134h84l-149 -1434h-136l136 1288z" />
<glyph unicode="2" horiz-adv-x="954" d="M61 0l13 125q9 88 55.5 169.5t114 145.5t147 125.5t159 120t146.5 116.5t112.5 128t53.5 143q6 66 -1.5 111t-35 79.5t-82.5 51t-141 16.5q-77 0 -160.5 -28.5t-128.5 -56.5l-45 -29l-43 86q7 6 20.5 16.5t57.5 37t90 46.5t114 36.5t134 16.5q198 0 291.5 -95.5 t73.5 -281.5q-10 -93 -51.5 -173t-102.5 -140t-133.5 -115.5t-150 -111t-146.5 -113t-127.5 -135.5t-89.5 -166h684l-12 -125h-816z" />
<glyph unicode="3" horiz-adv-x="995" d="M51 98l45 84q6 -4 16.5 -9.5t46 -21t74.5 -27t100 -21t124 -9.5q344 0 374 309q7 71 -1 126.5t-34.5 101.5t-82.5 71t-140 25h-221l8 80l484 502h-621l13 125h788l-12 -125l-445 -459h8q31 0 63.5 -3.5t77 -15t82.5 -30.5t76 -53.5t62.5 -80.5t36 -115t2.5 -153 q-20 -195 -159.5 -310.5t-346.5 -115.5q-74 0 -144.5 13t-118 31.5t-84 36.5t-54.5 31z" />
<glyph unicode="4" horiz-adv-x="1007" d="M82 403l14 125l631 930h145l-630 -930h508l43 426h131l-43 -426h141l-14 -125h-142l-41 -403h-131l41 403h-653z" />
<glyph unicode="5" horiz-adv-x="978" d="M72 98l51 84q3 -4 9.5 -9.5t32 -21t56.5 -27t86 -21t119 -9.5q81 0 148.5 25t109.5 63t72 87t43.5 92.5t17.5 84.5q37 340 -258 340q-49 0 -97 -9t-80.5 -21.5t-58.5 -25t-39 -21.5l-12 -9l-79 17l133 717h723l-13 -125h-604l-86 -457q33 20 98.5 37.5t135.5 17.5 q183 0 295 -119.5t90 -332.5q-22 -200 -173.5 -341t-353.5 -141q-74 0 -139.5 13t-105 31.5t-68.5 36.5t-41 31z" />
<glyph unicode="6" horiz-adv-x="1017" d="M142 396.5q-3 78.5 0.5 150t13.5 160.5q17 161 60 290.5t101 213.5t131.5 140.5t147.5 80.5t152 24t149.5 -29t104.5 -57l32 -29l-55 -75q-3 3 -9.5 8t-27.5 18t-45 23t-61 18t-76 8q-108 0 -193 -43t-142 -124t-92 -189.5t-50 -247.5l-4 -47h6q39 72 134 136.5t220 64.5 q185 0 285 -120.5t77 -328.5q-23 -211 -162.5 -340t-322.5 -129q-81 0 -144 21.5t-104 57t-68.5 91.5t-41 115.5t-16.5 138zM266 485q-1 -86 10.5 -153t39 -125t81 -89.5t131.5 -31.5q125 0 224.5 92t117.5 264q17 150 -43.5 241t-175.5 91q-73 0 -137.5 -26t-104.5 -61 t-73.5 -80t-47.5 -72.5t-22 -49.5z" />
<glyph unicode="7" horiz-adv-x="931" d="M178 1309l12 125h850l-12 -125l-559 -1309h-143l559 1309h-707z" />
<glyph unicode="8" horiz-adv-x="1054" d="M106 342q8 71 41 137t74 111t93.5 84.5t88 59.5t68.5 34q-122 74 -174.5 155.5t-40.5 200.5q7 67 37.5 125.5t81.5 105.5t129.5 74t173.5 27q183 0 274 -93.5t76 -244.5q-5 -52 -29 -102t-55 -86.5t-71.5 -70t-71.5 -53.5t-62 -36q162 -91 228 -184.5t53 -233.5 q-19 -174 -150.5 -276.5t-349.5 -102.5q-216 0 -324 99.5t-90 269.5zM238 358q-6 -56 6 -102t44.5 -84t95 -59t151.5 -21q168 0 253.5 70t98.5 190q11 113 -52 188t-237 158q-9 6 -23 13q-26 -10 -60 -27.5t-82.5 -50.5t-88 -71.5t-70 -92.5t-36.5 -111zM387 1124 q-10 -100 51 -166t193 -129q1 0 3 -1t3 -1q36 14 74 36t81 57t73 85.5t36 106.5q12 113 -51.5 170t-183.5 57q-52 0 -98 -11.5t-85 -36t-64.5 -67.5t-31.5 -100z" />
<glyph unicode="9" horiz-adv-x="1017" d="M131 88l55 76q3 -3 9.5 -8t28 -18.5t45 -23.5t61 -18t76.5 -8q108 0 193 43t142 124t92 189.5t50 247.5l4 47h-6q-22 -43 -67 -86t-123.5 -78.5t-164.5 -35.5q-185 0 -284.5 120t-77.5 328q23 211 162.5 340t322.5 129q81 0 144 -21.5t104.5 -57t69 -91t41 -115t17 -138 t0 -150t-12.5 -160.5q-17 -161 -60.5 -290.5t-102 -214t-131.5 -141t-147.5 -80.5t-152.5 -24q-49 0 -97 12t-80.5 28.5t-58.5 33.5t-38 29zM295 987q-15 -151 45 -241.5t174 -90.5q73 0 137.5 26t104.5 61t73.5 80t47.5 72.5t22 49.5q1 86 -10.5 153t-39 125t-81 89.5 t-131.5 31.5q-59 0 -114.5 -22t-103 -64t-81 -112t-43.5 -158z" />
<glyph unicode=":" horiz-adv-x="331" d="M68 74q5 41 38 70.5t76 29.5q44 0 71.5 -29.5t22.5 -70.5q-5 -42 -37.5 -71.5t-76.5 -29.5q-43 0 -70.5 30t-23.5 71zM154 879q3 41 37 70.5t77 29.5q44 0 70.5 -29t23.5 -71q-5 -42 -38.5 -71.5t-77.5 -29.5q-43 0 -70 30t-22 71z" />
<glyph unicode=";" d="M53 -178q8 7 21 20.5t40 53t38 77.5q-39 3 -63 32t-21 69q5 41 38 70.5t76 29.5t70.5 -29.5t23.5 -70.5q0 -54 -28 -121q-18 -44 -55.5 -88t-66.5 -66l-28 -22zM154 879q3 41 37 70.5t77 29.5q44 0 70.5 -29t23.5 -71q-5 -42 -38.5 -71.5t-77.5 -29.5q-43 0 -70 30 t-22 71z" />
<glyph unicode="&#x3c;" horiz-adv-x="1044" d="M90 481l10 103l1016 495l-14 -135l-842 -412l756 -411l-15 -135z" />
<glyph unicode="=" horiz-adv-x="1024" d="M76 332l12 123h942l-12 -123h-942zM121 772l14 125h942l-14 -125h-942z" />
<glyph unicode="&#x3e;" horiz-adv-x="1044" d="M39 -14l14 135l842 411l-756 412l15 135l909 -495l-10 -103z" />
<glyph unicode="?" horiz-adv-x="884" d="M156 1303q7 6 20.5 16.5t57 37t89.5 46.5t114 36.5t134 16.5q196 0 298.5 -108.5t82.5 -298.5q-9 -84 -38.5 -151.5t-70.5 -112.5t-88.5 -85t-95.5 -78.5t-88.5 -82t-70 -106.5t-37.5 -142h-111q10 95 38.5 170t67 122.5t83 87t88.5 74.5t81.5 73.5t64.5 95t34 128.5 q14 136 -57.5 212.5t-219.5 76.5q-49 0 -101 -11.5t-92 -28.5t-72.5 -34t-50.5 -29l-17 -11zM281 74q5 41 38 70.5t76 29.5t70.5 -29.5t23.5 -70.5q-5 -41 -38 -71t-76 -30t-70.5 30t-23.5 71z" />
<glyph unicode="@" horiz-adv-x="1748" d="M133 690q17 166 82.5 312.5t162.5 253.5t218 184.5t253 116t263 38.5q232 0 392 -88.5t230 -243.5t48 -356q-12 -121 -52.5 -232t-96.5 -192.5t-121.5 -142.5t-130 -92t-119.5 -31q-16 0 -31 3t-34 12t-32 25t-24.5 42t-11 64t7.5 90q-4 -10 -12 -25.5t-38 -56.5t-65 -72 t-93 -56.5t-122 -25.5q-61 0 -114.5 25t-94.5 74.5t-60 133t-8 189.5q17 150 92.5 285.5t197.5 222t259 86.5q131 0 211 -72l13 47h120l-163 -716q-9 -38 -12.5 -59t-4.5 -49t10.5 -41t34.5 -13q29 0 69.5 17.5t92 61t97 106.5t82.5 165.5t50 226.5q15 141 -23 253.5 t-117.5 184.5t-191 110t-245.5 38q-97 0 -202.5 -29t-213 -94t-196 -156t-152 -227.5t-80.5 -296.5q-16 -154 13.5 -280.5t90.5 -209.5t147.5 -140t180.5 -82t193 -25q172 0 333 69.5t267 184.5l53 -53q-130 -151 -307 -229.5t-357 -78.5q-133 0 -251.5 33.5t-215.5 103 t-164 168.5t-96 237.5t-12 301.5zM666 649q-34 -319 170 -319q45 0 89.5 22t79 58t66 79t53.5 85.5t39 78.5t25 58l8 22l72 326q-65 67 -201 67q-105 0 -194.5 -70t-141.5 -177.5t-65 -229.5z" />
<glyph unicode="A" horiz-adv-x="1165" d="M41 0l604 1434h131l348 -1434h-139l-104 434h-527l-182 -434h-131zM403 551h449l-164 676z" />
<glyph unicode="B" horiz-adv-x="1142" d="M102 0l150 1434h418q130 0 221 -26.5t139 -75.5q50 -50 68 -112q13 -44 12 -95q0 -22 -2 -46q-6 -59 -24.5 -107.5t-42.5 -79.5t-52 -54.5t-54.5 -35t-48.5 -18.5t-35 -8l-13 -2v-6q6 -1 17 -2.5t41 -11t57.5 -23.5t59.5 -42t53 -63q22 -34 34 -90q7 -34 7 -74 q0 -23 -3 -48q-11 -101 -45 -175t-96.5 -129t-162 -82.5t-235.5 -27.5h-463zM244 125h334q69 0 115.5 4.5t97.5 21t83 47t56.5 84.5t32.5 132q2 21 2 41q0 115 -70 171q-82 66 -231 66h-361zM315 817h318q135 0 232 69t110 193q2 18 2 34q-1 99 -67 145q-78 54 -253 53h-288 z" />
<glyph unicode="C" horiz-adv-x="1142" d="M150 486q-3 37 -3 76q0 66 9 140q18 172 67 306.5t114.5 217t149 136t163 74t163.5 20.5q65 0 130 -13t111 -32t82.5 -37.5t55.5 -31.5l18 -13l-49 -80q-6 3 -16 8.5t-43.5 20t-68.5 25t-86.5 19.5t-100.5 9q-84 0 -156 -19.5t-138 -66t-116 -117.5t-85.5 -179 t-49.5 -247q-8 -71 -8 -134q0 -470 428 -470q96 0 185.5 24t131.5 48l41 23l33 -80q-7 -6 -19.5 -15.5t-56.5 -33.5t-92.5 -42.5t-125 -33.5t-156.5 -15q-64 0 -122 11t-115 35.5t-102 64t-83.5 96.5t-60 133t-29.5 173z" />
<glyph unicode="D" horiz-adv-x="1171" d="M102 0l150 1434h405q125 0 225 -44t170 -130.5t100 -225.5q18 -85 19 -186q0 -64 -8 -133q-19 -178 -77.5 -316.5t-146.5 -224.5t-197 -130t-234 -44h-406zM246 125h274q70 0 134 20t124.5 65t108 112t82 167.5t47.5 225.5q7 64 7 122q0 83 -14 152q-23 118 -77.5 186 t-126.5 101t-160 33h-274z" />
<glyph unicode="E" horiz-adv-x="1007" d="M102 0l150 1434h835l-12 -125h-706l-54 -506h603l-15 -125h-602l-57 -553h714l-12 -125h-844z" />
<glyph unicode="F" horiz-adv-x="978" d="M102 0l150 1434h835l-12 -125h-706l-54 -508h600l-14 -125h-600l-70 -676h-129z" />
<glyph unicode="G" horiz-adv-x="1204" d="M150 486q-3 37 -3 76q0 66 9 140q17 164 66 295.5t115 215.5t149 140t163.5 79.5t163.5 23.5q65 0 130 -13t111 -32t82.5 -37.5t55.5 -31.5l18 -13l-47 -80q-6 3 -16.5 8.5t-44 20t-69 25t-87 19.5t-100.5 9q-104 0 -192 -35.5t-161.5 -108.5t-123 -196.5t-66.5 -288.5 q-7 -70 -7 -132q0 -81 12 -148q22 -118 78.5 -188t137 -103t187.5 -33q136 0 276 74l60 561h131l-66 -627q-7 -5 -19.5 -14t-56.5 -32t-92.5 -40.5t-125 -32t-156.5 -14.5q-64 0 -122 11t-115 35.5t-102 64t-83.5 96.5t-59.5 133t-30 173z" />
<glyph unicode="H" horiz-adv-x="1218" d="M102 0l150 1434h129l-66 -633h754l66 633h131l-150 -1434h-131l70 676h-754l-70 -676h-129z" />
<glyph unicode="I" d="M102 0l150 1434h129l-150 -1434h-129z" />
<glyph unicode="J" horiz-adv-x="462" d="M6 68q59 16 101 40.5t79 67t59.5 110.5t33.5 163l102 985h129l-102 -985q-7 -57 -18.5 -109.5t-40.5 -120.5t-69.5 -118t-110.5 -86.5t-159 -41.5z" />
<glyph unicode="K" horiz-adv-x="1079" d="M102 0l150 1434h129l-76 -723l684 723h166l-604 -637l528 -797h-164l-460 694l-170 -178l-54 -516h-129z" />
<glyph unicode="L" horiz-adv-x="987" d="M102 0l150 1434h129l-137 -1309h714l-12 -125h-844z" />
<glyph unicode="M" horiz-adv-x="1495" d="M102 0l150 1434h129l424 -1012l606 1012h131l-149 -1434h-131l118 1145l-530 -875h-119l-379 891l-121 -1161h-129z" />
<glyph unicode="N" horiz-adv-x="1245" d="M102 0l150 1434h145l637 -1225l129 1225h129l-149 -1434h-146l-639 1225l-127 -1225h-129z" />
<glyph unicode="O" horiz-adv-x="1325" d="M156 715q19 187 78.5 331t148.5 232.5t198 133t234 44.5t224.5 -44.5t169 -133t98.5 -232.5q18 -87 17 -190q0 -67 -7 -141q-19 -187 -78.5 -331t-148 -232.5t-197.5 -133.5t-234 -45t-224.5 44.5t-169.5 133.5t-99 233q-18 87 -18 190q0 67 8 141zM303 715 q-7 -70 -8 -132q0 -85 14 -155q23 -122 78 -192.5t127 -104t160 -33.5t166.5 33.5t148 104t117.5 193t65 286.5q7 71 7 133q0 84 -12 154q-22 122 -77 192t-126.5 103.5t-159.5 33.5t-167 -33.5t-149 -103.5t-118.5 -192.5t-65.5 -286.5z" />
<glyph unicode="P" horiz-adv-x="1091" d="M102 0l150 1434h375q269 0 400 -104q113 -90 112 -258q0 -27 -2 -56q-22 -208 -173 -319t-425 -111h-240l-61 -586h-136zM311 711h240q70 0 124.5 5.5t113 24.5t98.5 51.5t70 89t38 134.5q2 23 2 44q-1 30 -5 56q-8 44 -25.5 74.5t-47.5 52.5t-62 34.5t-75.5 20 t-81.5 9.5t-86 2h-239z" />
<glyph unicode="Q" horiz-adv-x="1339" d="M156 715q19 187 78.5 331t148.5 232.5t198 133t234 44.5t224.5 -44.5t169 -133t98.5 -232.5q18 -87 18 -190q0 -67 -8 -141q-31 -296 -155 -474.5t-312 -238.5l379 -260l-45 -61q-18 5 -54 18.5t-171.5 87.5t-299.5 186q-125 0 -224.5 44.5t-169.5 133.5t-99 233 q-18 87 -18 190q0 67 8 141zM303 715q-7 -70 -7 -132q0 -84 13 -155q23 -122 78 -192.5t127 -104t160 -33.5t166.5 33.5t147 104t116.5 193t65 286.5q9 72 9 135q0 55 -7 103q-14 103 -45.5 174.5t-83 117t-110.5 66t-129 20.5q-88 0 -167 -33.5t-149 -103.5t-118.5 -192.5 t-65.5 -286.5z" />
<glyph unicode="R" horiz-adv-x="1091" d="M102 0l150 1434h377q269 0 399 -104q112 -90 112 -258q0 -27 -3 -56q-36 -317 -353 -402l246 -614h-145l-236 590q-70 -4 -108 -4h-240l-61 -586h-138zM313 711h240q70 0 123.5 5.5t112.5 24.5t98.5 51t69.5 89t38 135q3 24 3 46q0 29 -5 54q-8 44 -25.5 74.5t-47.5 52.5 t-61.5 34.5t-75 20t-81.5 9.5t-86 2h-239z" />
<glyph unicode="S" horiz-adv-x="1091" d="M72 106l49 87q8 -4 21.5 -10.5t57 -22.5t87.5 -28.5t106.5 -23t120.5 -10.5q382 0 412 273q1 12 1 24q-1 89 -67 145q-76 62 -254 124q-60 21 -94 33.5t-86 36t-82 43.5t-64.5 51.5t-51.5 65.5q-16 32 -26 78q-6 30 -7 63q0 17 2 36q20 183 158 284t347 101 q106 0 210 -23t155 -46l51 -23l-37 -88q-18 6 -49.5 15t-123 24.5t-175.5 15.5q-367 0 -393 -252l-2 -26q0 -25 6 -47q8 -34 29.5 -59t47 -44.5t64 -36.5t72.5 -29.5t81 -27.5q13 -4 19 -6q91 -31 154 -59.5t118.5 -66.5t86.5 -82q31 -43 45 -103q9 -38 9 -82q0 -25 -3 -52 q-20 -181 -159.5 -283t-352.5 -102q-96 0 -181 13.5t-137.5 33t-92 39.5t-56.5 33z" />
<glyph unicode="T" horiz-adv-x="1067" d="M178 1309l12 125h986l-13 -125h-428l-137 -1309h-129l137 1309h-428z" />
<glyph unicode="U" horiz-adv-x="1196" d="M154 487l98 947h129l-98 -947q-4 -38 -4 -72q-1 -140 69 -219q86 -98 259.5 -98t279.5 97.5t127 291.5l98 947h131l-98 -947q-10 -98 -40.5 -178.5t-75 -135.5t-96.5 -95t-112 -62.5t-115.5 -32.5t-111.5 -10q-68 0 -131 14t-126 50.5t-107 92.5t-66 148q-14 60 -14 130 q0 38 4 79z" />
<glyph unicode="V" horiz-adv-x="1196" d="M150 1434h139l329 -1221l588 1221h140l-689 -1434h-118z" />
<glyph unicode="W" horiz-adv-x="1814" d="M150 1434h137l235 -1180l447 1044h147l230 -1044l481 1180h137l-584 -1434h-120l-240 1087l-465 -1087h-121z" />
<glyph unicode="X" horiz-adv-x="1126" d="M0 0l551 723l-389 711h157l322 -588h21l444 588h158l-537 -711l399 -723h-157l-342 616l-469 -616h-158z" />
<glyph unicode="Y" horiz-adv-x="1198" d="M150 1434h145l389 -750l518 750h146l-613 -881l-57 -553h-131l57 547z" />
<glyph unicode="Z" horiz-adv-x="1054" d="M41 0l12 125l932 1184h-778l12 125h936l-12 -125l-932 -1184h815l-12 -125h-973z" />
<glyph unicode="[" horiz-adv-x="534" d="M66 -342l186 1776h422l-12 -119h-293l-162 -1538h293l-13 -119h-421z" />
<glyph unicode="\" horiz-adv-x="804" d="M150 1434h129l526 -1434h-129z" />
<glyph unicode="]" horiz-adv-x="534" d="M-25 -342l13 119h291l161 1538h-293l13 119h422l-187 -1776h-420z" />
<glyph unicode="^" horiz-adv-x="716" d="M98 942l359 492h102l256 -492h-135l-186 358l-261 -358h-135z" />
<glyph unicode="_" horiz-adv-x="614" d="M-12 -125l12 125h614l-14 -125h-612z" />
<glyph unicode="`" horiz-adv-x="452" d="M150 1434h178l231 -410h-125z" />
<glyph unicode="a" horiz-adv-x="907" d="M115 410q16 153 77.5 281t167.5 208t234 80q53 0 104 -9.5t85.5 -23.5t61 -28t39.5 -24l13 -9l-92 -885h-100q-1 8 -2 22t-3 52q-1 23 0 44v27q-64 -60 -152 -107.5t-169 -47.5q-270 0 -270 317q0 48 6 103zM235 283q4 -54 15.5 -90.5t34 -58.5t49.5 -31t63 -9 q67 0 150.5 47.5t159.5 130.5l59 562q-81 34 -160 34q-146 0 -245.5 -129.5t-120.5 -328.5q-6 -51 -6 -92q0 -18 1 -35z" />
<glyph unicode="b" horiz-adv-x="933" d="M109 72l143 1362h125l-55 -521q94 66 235 66q70 0 129 -16.5t108.5 -52.5t82 -90t45.5 -134q7 -44 7 -93q0 -41 -5 -87q-25 -236 -160.5 -382.5t-335.5 -146.5q-55 0 -108 10t-89.5 23.5t-65.5 27.5t-43 24zM240 123q84 -35 176 -35q157 0 260 110t123 308q4 38 4 72 q0 130 -60 202q-76 92 -221 92q-122 0 -213 -79z" />
<glyph unicode="c" horiz-adv-x="811" d="M111 469q24 229 153.5 369.5t298.5 140.5q50 0 97 -8.5t78.5 -21t56 -25t35.5 -20.5l12 -9l-33 -76q-11 6 -31 15t-79.5 23.5t-116.5 14.5q-134 0 -232 -113t-117 -290q-4 -34 -4 -66q-1 -127 61 -213q76 -108 212 -108q67 0 131 14t95 28l30 13l18 -76q-5 -3 -14 -9 t-40 -20.5t-65.5 -25.5t-88 -20t-109.5 -9q-169 0 -271 132q-81 106 -82 274q0 41 5 86z" />
<glyph unicode="d" horiz-adv-x="917" d="M102 298q0 14 -1 28q0 55 5 112q56 539 486 539q58 0 109 -21t83 -49l52 492h125l-146 -1399h-100q-1 8 -2 22t-2 52q0 19 -0.5 36.5t0.5 32.5q-158 -168 -320 -168q-73 0 -128.5 25.5t-87.5 69t-51.5 102t-21.5 126.5zM235 307q6 -64 23.5 -114.5t57.5 -81.5t98 -31 q78 0 150.5 50t154.5 144l55 527q-78 73 -186 73q-37 0 -66 -3t-63.5 -14t-60.5 -29.5t-53 -51.5t-47 -78t-35.5 -111t-24.5 -149q-5 -40 -6 -79q1 -26 3 -52z" />
<glyph unicode="e" horiz-adv-x="876" d="M109 467q13 117 59 215t112.5 162t147.5 99.5t166 35.5q154 0 232 -64q66 -54 65 -163q0 -20 -2 -41q-14 -127 -118 -194.5t-294 -67.5h-244q-3 -29 -3 -56q0 -59 14 -107q22 -72 65.5 -114t97.5 -64t113 -22q72 0 138 12t96 24l30 11l21 -72q-6 -3 -16 -9t-43.5 -20.5 t-68.5 -25.5t-87.5 -20t-104.5 -9q-191 1 -295 131q-85 106 -85 277q0 39 4 82zM244 524l120 18q75 9 123 9q133 0 201 44t76 118q1 13 1 25q1 64 -39 98q-48 40 -144 41q-113 0 -207 -92.5t-131 -260.5z" />
<glyph unicode="f" horiz-adv-x="616" d="M-31 -395q111 30 166 117t76 278l88 846h-172l10 108h172l21 181q18 173 90.5 247t202.5 74q47 0 96.5 -19t75.5 -38l26 -19l-33 -71q-92 45 -170 45q-66 0 -109 -48.5t-56 -170.5l-21 -181h244l-10 -108q-142 0 -242 14l-90 -860q-4 -37 -7 -58t-10.5 -63t-15.5 -69 t-23 -66.5t-33 -65.5t-44.5 -56t-58.5 -48t-74.5 -31t-92.5 -16z" />
<glyph unicode="g" horiz-adv-x="933" d="M104 -360l35 75q11 -6 30.5 -15t83 -24.5t130.5 -15.5q144 0 224 82t95 238l9 63q-94 -66 -236 -66q-88 0 -158.5 27t-123 82t-75.5 148q-14 59 -14 130q0 42 5 87q25 236 160 382t335 146q55 0 108.5 -9.5t90 -23.5t65 -28t42.5 -24l14 -9l-97 -905q-20 -194 -126 -309 t-298 -115q-56 0 -107 8.5t-84.5 21t-59 25t-36.5 21.5zM233 451q-4 -38 -4 -72q0 -128 60 -202q76 -93 221 -93q121 0 213 80l70 670q-81 34 -177 34q-157 0 -260 -109.5t-123 -307.5z" />
<glyph unicode="h" horiz-adv-x="925" d="M102 0l150 1434h125l-64 -607q65 62 152 107t176 45q84 0 139 -26.5t79 -72.5q24 -48 32 -112q4 -29 4 -59q0 -38 -6 -80l-66 -629h-125l66 629q4 39 4 72q0 74 -20 115q-30 58 -130 58q-146 0 -319 -180l-72 -694h-125z" />
<glyph unicode="i" horiz-adv-x="354" d="M115 0l98 954h125l-98 -954h-125zM225 1186q3 29 28 50t56 21t50 -21q16 -18 17 -42q0 -4 -1 -8q-3 -31 -26 -51.5t-54 -20.5t-52 21q-18 18 -18 44v7z" />
<glyph unicode="j" horiz-adv-x="399" d="M-82 -395q111 30 166 117t76 278l98 954h125l-98 -954q-5 -47 -9.5 -76t-16.5 -83t-27 -89.5t-42.5 -80t-62.5 -72t-87.5 -48.5t-115.5 -24zM270 1186q3 29 27.5 50t56.5 21q31 0 50 -21q16 -18 16 -42v-8q-3 -31 -26 -51.5t-54 -20.5q-32 0 -52 20q-18 18 -18 44v8z" />
<glyph unicode="k" horiz-adv-x="854" d="M102 0l150 1434h125l-98 -930l454 450h154l-404 -399l351 -555h-152l-291 463l-129 -129l-35 -334h-125z" />
<glyph unicode="l" horiz-adv-x="376" d="M134 232q6 98 16 209q1 13 2 20l102 973h125l-103 -973q-1 -6 -2 -19q-6 -58 -8 -86t-6 -72q-3 -35 -3 -55v-11q1 -22 4 -52.5t10.5 -48t19 -35t28.5 -29.5l-22 -76q-91 9 -130 83q-33 63 -33 145q-1 13 0 27z" />
<glyph unicode="m" horiz-adv-x="1431" d="M102 0l99 954h100q1 -8 2 -22t2 -50q0 -18 0.5 -35t-0.5 -32q134 164 293 164q107 0 162.5 -48.5t73.5 -146.5q142 195 315 195q85 0 139 -30.5t77 -86.5t28 -136q1 -23 1 -49q0 -60 -8 -128l-57 -549h-125l58 549q7 52 7 99q-1 13 -1 26q-2 59 -14 103.5t-44 70.5 t-82 26q-77 0 -137.5 -46t-140.5 -144l-72 -684h-125l62 588q4 43 4 79q0 207 -141 207q-77 0 -139 -47t-140 -143l-72 -684h-125z" />
<glyph unicode="n" horiz-adv-x="937" d="M102 0l99 954h100q1 -8 2 -22t2 -52q0 -19 0.5 -36t-0.5 -33q158 168 322 168q85 0 143 -30.5t87 -86.5t39 -136q4 -35 4 -74q0 -49 -7 -103l-57 -549h-125l57 549q4 40 4 77q0 46 -6 86q-12 71 -52.5 116.5t-107.5 45.5q-80 0 -154 -49.5t-155 -142.5l-70 -682h-125z " />
<glyph unicode="o" horiz-adv-x="976" d="M111 477q13 120 59.5 217.5t114 158.5t147 93.5t162.5 32.5t154.5 -32.5t125.5 -93.5q52 -61 78 -159q17 -65 17 -139q0 -38 -4 -78q-13 -119 -59.5 -216.5t-114.5 -158t-147.5 -93t-162.5 -32.5t-154.5 32.5t-125 93t-78.5 157.5q-16 64 -16 138q0 38 4 79zM240 477 q-5 -43 -4 -82q0 -132 55 -209q72 -100 203 -100q135 0 228 99.5t114 291.5q4 40 4 76q0 53 -9 98q-16 77 -52 124t-86.5 71t-110.5 24q-58 0 -113 -24.5t-103 -71t-82 -123.5t-44 -174z" />
<glyph unicode="p" horiz-adv-x="917" d="M55 -444l146 1398h100q1 -8 2 -22t2 -52q1 -19 1 -36.5t-1 -32.5q158 168 320 168q73 0 128.5 -25.5t87.5 -69t51.5 -102.5t21.5 -126v-28q0 -54 -5 -112q-56 -539 -485 -539q-58 0 -109.5 21t-83.5 49l-51 -491h-125zM242 154q79 -74 186 -74q37 0 66 3t63.5 14 t60.5 29.5t53 51.5t47 78t35.5 111t24.5 149q5 40 5 79q0 26 -2 52q-6 64 -23.5 114.5t-57.5 81.5t-98 31q-78 0 -150.5 -50t-154.5 -144z" />
<glyph unicode="q" horiz-adv-x="933" d="M109 451q25 236 160 382t335 146q55 0 108.5 -9.5t90 -23.5t65 -28t42.5 -24l14 -9l-140 -1329h-125l52 487q-94 -66 -236 -66q-88 0 -158.5 27t-123 82t-75.5 148q-14 59 -14 130q0 42 5 87zM233 451q-4 -38 -4 -72q0 -128 60 -202q76 -93 221 -93q121 0 213 80l70 670 q-81 34 -177 34q-157 0 -260 -109.5t-123 -307.5z" />
<glyph unicode="r" horiz-adv-x="651" d="M102 0l99 954h100q1 -17 2 -42.5t3 -93.5q1 -20 1 -36q0 -40 -4 -59l-2 -21q18 47 49 86q55 73 148.5 126t232.5 53l-14 -133q-72 0 -134.5 -15.5t-105.5 -40t-77.5 -54.5t-55.5 -59.5t-35 -54t-19 -40.5l-5 -15l-58 -555h-125z" />
<glyph unicode="s" horiz-adv-x="806" d="M68 68l36 67q130 -49 269 -49q144 0 207 46.5t71 129.5q1 9 1 18q0 59 -42 89q-48 35 -174 67q-54 15 -92 27.5t-82.5 36t-70.5 50.5q-25 26 -41 68q-12 31 -12 69q0 12 1 24q7 70 40.5 123t86 84t115 46t133.5 15t143.5 -16t108.5 -32l37 -16l-31 -69q-115 28 -244 28 q-55 0 -97 -6.5t-81 -22.5t-62 -48.5t-28 -79.5v-10q0 -37 26 -63q30 -30 60.5 -42t103.5 -35q17 -5 25 -8q73 -24 107.5 -36.5t82.5 -38t67.5 -53.5t32.5 -73q9 -31 9 -68q0 -17 -2 -36q-10 -88 -65 -152t-135 -94.5t-175 -30.5q-65 0 -122.5 9.5t-93.5 22.5t-63 26.5 t-38 22.5z" />
<glyph unicode="t" horiz-adv-x="702" d="M129 846l10 108h172l13 105q5 57 19.5 115.5t26.5 87.5l11 30h92l-37 -338h242l-10 -108q-144 0 -240 14l-59 -561q-3 -38 -2 -69q0 -24 1 -43q4 -43 23.5 -66.5t41.5 -32t54 -8.5q36 0 81 11t72 23l28 11l18 -72q-13 -9 -35 -21.5t-80.5 -33.5t-105.5 -21 q-225 0 -225 248q0 35 4 74l57 547h-172z" />
<glyph unicode="u" horiz-adv-x="935" d="M145 410l56 544h123l-56 -544q-5 -43 -4 -81q0 -45 6 -83q12 -72 51.5 -118t106.5 -46q80 0 154 49.5t155 142.5l70 680h125l-98 -954h-101q-4 73 -4 145q-158 -168 -321 -168q-166 0 -226 113q-44 82 -43 213q0 50 6 107z" />
<glyph unicode="v" horiz-adv-x="835" d="M98 954h127l221 -751l361 751h127l-457 -954h-104z" />
<glyph unicode="w" horiz-adv-x="1277" d="M98 954h121l152 -733l301 643h114l166 -643l303 733h121l-393 -954h-100l-174 670l-314 -670h-100z" />
<glyph unicode="x" horiz-adv-x="815" d="M0 0l377 494l-256 460h141l199 -356h16l273 356h141l-350 -460l274 -494h-145l-221 395l-304 -395h-145z" />
<glyph unicode="y" horiz-adv-x="835" d="M-16 -375l49 70q66 -39 121 -39q67 0 116 58.5t90 164.5l50 121h-84l-228 954h135l209 -876l363 876h129l-455 -1106q-62 -148 -140 -223.5t-189 -75.5q-50 0 -93.5 20.5t-72.5 55.5z" />
<glyph unicode="z" horiz-adv-x="774" d="M41 0l10 111l615 731h-519l11 112h667l-10 -110l-614 -731h542l-10 -113h-692z" />
<glyph unicode="{" horiz-adv-x="612" d="M115 508l8 90q68 0 124.5 46t67.5 153l35 315q33 322 289 322h113l-11 -103h-98q-32 0 -56.5 -9t-47.5 -31.5t-38 -67t-22 -111.5l-30 -289q-8 -68 -27.5 -120.5t-42 -79.5t-44 -44t-35.5 -21l-15 -5q5 -1 14 -4.5t30 -21.5t36 -44t24 -79t2 -121l-31 -289 q-7 -67 -0.5 -111.5t24.5 -67.5t40.5 -31.5t54.5 -8.5h99l-11 -103h-112q-257 0 -224 322l33 315q6 56 -5.5 97t-35.5 62t-51 30.5t-57 9.5z" />
<glyph unicode="|" d="M86 -143l180 1720h129l-180 -1720h-129z" />
<glyph unicode="}" horiz-adv-x="612" d="M-23 -328l11 103h96q32 0 56.5 9t47.5 31.5t38 67t22 111.5l31 289q7 68 26.5 120.5t42 79.5t44 44t36.5 21l14 5q-5 1 -14 4.5t-30.5 21.5t-36.5 44t-24 79t-1 121l31 289q7 67 0.5 111.5t-24.5 67.5t-40.5 31.5t-54.5 8.5h-98l10 103h112q257 0 224 -322l-35 -315 q-6 -56 6 -97t36.5 -62t51 -30.5t57.5 -9.5l-8 -90q-31 0 -60 -9.5t-58 -30.5t-49.5 -62t-26.5 -97l-33 -315q-33 -322 -289 -322h-111z" />
<glyph unicode="~" horiz-adv-x="1058" d="M92 498q100 159 270 159q103 0 254 -67q134 -62 224 -62q100 0 176 82l61 -43q-102 -159 -272 -159q-105 0 -252 67q-134 62 -223 62q-100 0 -176 -82z" />
<glyph unicode="&#xa4;" horiz-adv-x="1132" d="M74 512l30 100h103l6 52h-123l31 100h102l70 670h377q265 0 397.5 -100.5t112.5 -291.5q-19 -181 -172.5 -279.5t-417.5 -98.5h-240l-6 -52h252q113 0 180.5 -24t108 -73.5t78.5 -145.5l149 -369h-145l-140 344q-37 95 -92 131.5t-149 36.5h-252l-53 -512h-138l54 512 h-123zM360 764h240q70 0 123.5 5.5t111.5 22.5t97.5 46.5t68.5 81t37 122.5q6 58 -5 102.5t-38.5 73t-61.5 47.5t-83 28t-93 12.5t-100 3.5h-239z" />
<glyph unicode="&#xa6;" d="M86 -143l78 737h129l-78 -737h-129zM190 840l76 737h129l-76 -737h-129z" />
<glyph unicode="&#xa7;" horiz-adv-x="884" d="M94 68l37 67q14 -5 39.5 -13.5t96 -22t132.5 -13.5q259 0 279 176q6 56 -21 96t-75 63.5t-106.5 44t-116.5 45t-105 57.5t-72.5 90t-17.5 135q14 134 117 213q-56 69 -45 180q14 136 119 203t255 67q71 0 144 -16t110 -32l37 -15l-33 -70q-112 29 -241 29 q-111 0 -186 -38t-83 -122q-5 -44 10.5 -78.5t46 -57.5t71 -42.5t86 -36.5t91 -35.5t85.5 -44.5t69.5 -58.5t44 -81.5t8.5 -110q-14 -129 -118 -213q58 -71 47 -180q-10 -88 -65 -152t-135 -94.5t-175 -30.5q-65 0 -122.5 9.5t-94 22.5t-63.5 26.5t-38 22.5zM285 799 q-5 -55 16 -95.5t65 -66.5t90 -44t107.5 -41.5t100.5 -45.5q78 64 86 149q5 47 -11.5 83.5t-45 58.5t-71.5 41.5t-84 32t-91.5 31.5t-84.5 38q-69 -62 -77 -141z" />
<glyph unicode="&#xa9;" horiz-adv-x="1568" d="M135 715q15 142 66.5 263t129 208t175.5 148.5t207 91.5t223 30q151 0 276.5 -49t214.5 -141t131 -234t23 -317q-18 -172 -92 -314t-183.5 -234.5t-245 -143t-280.5 -50.5q-142 0 -266 50t-215.5 141.5t-136.5 234.5t-27 316zM225 715q-17 -165 20.5 -295.5t117 -211.5 t188 -123t237.5 -42q128 0 244.5 42t213 123t161.5 211.5t82 295.5q14 132 -10 243t-76 188.5t-127 132t-162.5 80t-183.5 25.5t-189.5 -25.5t-181 -80t-156.5 -132t-116.5 -188.5t-61.5 -243zM485 698q12 110 46 197.5t79 141.5t101.5 90t109.5 50.5t107 14.5 q42 0 83.5 -9.5t70.5 -23.5t52 -28t34 -23l12 -10l-41 -62q-10 6 -27 15.5t-69.5 25t-102.5 15.5q-68 0 -121 -19.5t-98.5 -63.5t-75 -122t-41.5 -189q-21 -203 44.5 -289.5t213.5 -86.5q61 0 114.5 16t77.5 32l23 15l39 -63q-4 -4 -12.5 -11t-37 -24.5t-59.5 -30.5t-80 -24 t-100 -11q-58 0 -110 15t-100 51t-80.5 89t-47.5 136t-4 186z" />
<glyph unicode="&#xab;" horiz-adv-x="782" d="M92 492q124 181 226.5 310.5t143.5 168.5l40 39l65 -41l-331 -486l223 -473l-62 -35q-5 5 -13.5 14.5t-38 50.5t-62.5 94t-85 148.5t-106 209.5zM381 494q78 114 147.5 206.5t113 142.5t75.5 83.5t45 43.5l14 11l55 -35l-305 -444l219 -457l-73 -41q-4 3 -12 11t-35 44.5 t-58 85.5t-81.5 142t-104.5 207z" />
<glyph unicode="&#xac;" horiz-adv-x="888" d="M102 596l13 125h807l-33 -330h-129l20 205h-678z" />
<glyph unicode="&#xad;" horiz-adv-x="696" d="M90 471l12 125h615l-12 -125h-615z" />
<glyph unicode="&#xae;" horiz-adv-x="1568" d="M135 715q15 142 66.5 263t129 208t175.5 148.5t207 91.5t223 30q151 0 276.5 -49t214.5 -141t131 -234t23 -317q-18 -172 -92 -314t-183.5 -234.5t-245 -143t-280.5 -50.5q-142 0 -266 50t-215.5 141.5t-136.5 234.5t-27 316zM225 715q-17 -165 20.5 -295.5t117 -211.5 t188 -123t237.5 -42q128 0 244.5 42t213 123t161.5 211.5t82 295.5q14 132 -10 243t-76 188.5t-127 132t-162.5 80t-183.5 25.5t-189.5 -25.5t-181 -80t-156.5 -132t-116.5 -188.5t-61.5 -243zM535 242l98 934h231q174 0 258.5 -67.5t71.5 -203.5q-10 -101 -68 -167.5 t-159 -94.5l157 -401h-110l-154 385q-16 -2 -53 -2h-127l-41 -383h-104zM688 719h117q267 0 287 186q5 46 -7.5 79t-34.5 51.5t-58 29t-69.5 13.5t-78.5 3h-117z" />
<glyph unicode="&#xb0;" horiz-adv-x="808" d="M147 1030q11 102 51 184.5t97 134.5t125 79.5t139 27.5q70 0 131 -27.5t106.5 -79.5t67 -134.5t10.5 -184.5t-50 -184.5t-96 -133.5t-124.5 -78.5t-138.5 -27.5q-70 0 -131.5 27.5t-107.5 78.5t-68 133.5t-11 184.5zM281 1030q-32 -311 194 -311q114 0 181.5 73.5 t84.5 237.5q18 162 -35 236.5t-159 74.5q-104 0 -176 -75t-90 -236z" />
<glyph unicode="&#xb1;" horiz-adv-x="1187" d="M51 109l12 124h1106l-12 -124h-1106zM125 803l12 125h488l43 405h131l-43 -405h487l-12 -125h-488l-43 -406h-131l43 406h-487z" />
<glyph unicode="&#xb6;" horiz-adv-x="946" d="M170 1036q9 89 53 165.5t108 126.5t140.5 78t151.5 28h370l-196 -1878h-115l184 1753h-141l-184 -1753h-115l115 1089q-100 0 -189.5 49t-141.5 140.5t-40 201.5z" />
<glyph unicode="&#xb7;" horiz-adv-x="512" d="M225 719q4 41 39 70.5t78 29.5q44 0 70.5 -29t21.5 -71q-3 -41 -37 -71t-78 -30q-42 0 -69.5 29.5t-24.5 71.5z" />
<glyph unicode="&#xbb;" horiz-adv-x="782" d="M45 45l313 457l-211 444l64 35q4 -3 12 -11t35.5 -43.5t59 -84.5t82 -141.5t104.5 -206.5q-124 -181 -222.5 -303.5t-134.5 -154.5l-36 -32zM324 10l321 473l-229 486l73 41q5 -5 13.5 -14.5t38 -50.5t62 -94t84.5 -149t106 -210q-78 -114 -149.5 -209t-118 -149.5 t-81.5 -92.5t-51 -52l-16 -14z" />
<glyph unicode="&#xd7;" horiz-adv-x="1069" d="M63 215l443 401l-359 402l101 92l360 -401l443 401l84 -92l-445 -402l361 -401l-103 -92l-360 401l-443 -401z" />
<glyph unicode="&#xf7;" horiz-adv-x="1187" d="M98 553l13 125h1106l-13 -125h-1106zM514 201q4 39 36.5 66.5t74.5 27.5q41 0 66.5 -27t21.5 -67q-5 -40 -36.5 -68.5t-72.5 -28.5t-67.5 28.5t-22.5 68.5zM600 1030q4 40 37 68t74 28t67 -28t21 -68q-3 -38 -34.5 -66t-72.5 -28t-68 28t-24 66z" />
<glyph unicode="&#x2000;" horiz-adv-x="797" />
<glyph unicode="&#x2001;" horiz-adv-x="1595" />
<glyph unicode="&#x2002;" horiz-adv-x="797" />
<glyph unicode="&#x2003;" horiz-adv-x="1595" />
<glyph unicode="&#x2004;" horiz-adv-x="531" />
<glyph unicode="&#x2005;" horiz-adv-x="398" />
<glyph unicode="&#x2006;" horiz-adv-x="265" />
<glyph unicode="&#x2007;" horiz-adv-x="265" />
<glyph unicode="&#x2008;" horiz-adv-x="199" />
<glyph unicode="&#x2009;" horiz-adv-x="319" />
<glyph unicode="&#x200a;" horiz-adv-x="88" />
<glyph unicode="&#x2010;" horiz-adv-x="696" d="M90 471l12 125h615l-12 -125h-615z" />
<glyph unicode="&#x2011;" horiz-adv-x="696" d="M90 471l12 125h615l-12 -125h-615z" />
<glyph unicode="&#x2012;" horiz-adv-x="696" d="M90 471l12 125h615l-12 -125h-615z" />
<glyph unicode="&#x2013;" horiz-adv-x="1122" d="M90 471l12 125h1041l-13 -125h-1040z" />
<glyph unicode="&#x2014;" horiz-adv-x="1372" d="M90 471l12 125h1291l-13 -125h-1290z" />
<glyph unicode="&#x2018;" horiz-adv-x="327" d="M186 807q23 208 52.5 365t47.5 210l19 52h70l-66 -627h-123z" />
<glyph unicode="&#x2019;" d="M227 1063.5q3 161.5 25 370.5h129l-66 -627h-79q-4 18 -8 56.5t-1 200z" />
<glyph unicode="&#x201a;" d="M104 -104q3 161 25 370h129l-65 -626h-80q-4 17 -8 56t-1 200z" />
<glyph unicode="&#x201c;" horiz-adv-x="571" d="M186 807q23 208 52.5 365t47.5 210l19 52h70l-66 -627h-123zM428 807l66 627h124l-65 -627h-125z" />
<glyph unicode="&#x201d;" horiz-adv-x="565" d="M227 1063.5q3 161.5 25 370.5h129l-66 -627h-79q-4 18 -8 56.5t-1 200zM428 807l66 627h118l-65 -627h-119z" />
<glyph unicode="&#x201e;" horiz-adv-x="565" d="M104 -104q3 161 25 370h129l-65 -626h-80q-4 17 -8 56t-1 200zM305 -360l66 626h118l-65 -626h-119z" />
<glyph unicode="&#x2022;" horiz-adv-x="655" d="M176 717q10 100 80 162.5t170 62.5t156 -62.5t45 -162.5t-79.5 -162.5t-168.5 -62.5t-156.5 62.5t-46.5 162.5z" />
<glyph unicode="&#x2026;" horiz-adv-x="1159" d="M68 74q5 41 38 70.5t76 29.5q44 0 71.5 -29.5t22.5 -70.5q-5 -42 -37.5 -71.5t-76.5 -29.5q-43 0 -70.5 30t-23.5 71zM481 74q4 41 38 70.5t77 29.5q44 0 71.5 -29.5t22.5 -70.5q-5 -42 -38 -71.5t-77 -29.5q-43 0 -70.5 30t-23.5 71zM895 74q4 41 38 70.5t77 29.5 q44 0 71.5 -29.5t22.5 -70.5q-5 -42 -38 -71.5t-77 -29.5q-43 0 -70.5 30t-23.5 71z" />
<glyph unicode="&#x202f;" horiz-adv-x="319" />
<glyph unicode="&#x2039;" horiz-adv-x="1044" d="M90 481l10 103l1016 495l-14 -135l-842 -412l756 -411l-15 -135z" />
<glyph unicode="&#x203a;" horiz-adv-x="1044" d="M39 -14l14 135l842 411l-756 412l15 135l909 -495l-10 -103z" />
<glyph unicode="&#x205f;" horiz-adv-x="398" />
<glyph unicode="&#x20ac;" horiz-adv-x="1110" d="M55 535l39 98h152q4 42 8 69q4 52 8 78h-180l39 99h160q28 131 76.5 233.5t103 166t120 104.5t125 57t119.5 16q65 0 122.5 -13t93 -32t61 -37.5t36.5 -31.5l11 -13l-57 -74q-3 3 -10 8.5t-29.5 19t-47.5 23.5t-65 18.5t-82 8.5q-333 0 -432 -454h592l-39 -99h-569 q-8 -31 -11 -78q-4 -27 -8 -69h543l-39 -98h-506q0 -230 86 -333.5t258 -103.5q82 0 156.5 23t108.5 46l34 23l47 -77q-5 -6 -14 -15.5t-43.5 -33.5t-76.5 -42.5t-112.5 -33.5t-150.5 -15q-72 0 -134.5 17t-119.5 58.5t-97 104.5t-63.5 160.5t-23.5 221.5h-189z" />
<glyph unicode="&#x2122;" horiz-adv-x="1204" d="M141 1350l9 84h479l-8 -84h-193l-55 -521h-97l56 521h-191zM623 829l63 605h94l183 -408l256 408h94l-64 -605h-94l45 418l-207 -325h-78l-153 331l-45 -424h-94z" />
<glyph unicode="&#xe000;" horiz-adv-x="952" d="M0 0v952h952v-952h-952z" />
</font>
</defs>
</svg>
